<mxfile host="app.diagrams.net" modified="2024-03-13T01:11:32.270Z" agent="Mozilla/5.0 (Windows NT 10.0; Win64; x64) AppleWebKit/537.36 (KHTML, like Gecko) Chrome/122.0.0.0 Safari/537.36 Edg/122.0.0.0" version="24.0.1" etag="ADCR__jfTA6lAWV4kE89" type="github">
  <diagram name="Page-1" id="KnK_KawR6o8a_aoTGXRs">
    <mxGraphModel>
      <root>
        <mxCell id="0" />
        <mxCell id="1" parent="0" />
      </root>
    </mxGraphModel>
  </diagram>
</mxfile>
